<?xml version="1.0" standalone="no"?>
<!DOCTYPE svg PUBLIC "-//W3C//DTD SVG 20010904//EN"
 "http://www.w3.org/TR/2001/REC-SVG-20010904/DTD/svg10.dtd">
<svg version="1.0" xmlns="http://www.w3.org/2000/svg"
 width="512.000000pt" height="512.000000pt" viewBox="0 0 512.000000 512.000000"
 preserveAspectRatio="xMidYMid meet">
<metadata>
Created by potrace 1.14, written by Peter Selinger 2001-2017
</metadata>
<g transform="translate(0.000000,512.000000) scale(0.100000,-0.100000)"
fill="#000000" stroke="none">
<path d="M2036 4158 c-24 -35 -20 -92 11 -141 37 -59 36 -131 -6 -262 -64
-200 -64 -306 -1 -429 16 -32 30 -64 30 -71 0 -8 -29 -19 -69 -28 -86 -20
-147 -48 -199 -93 -42 -36 -102 -141 -102 -180 0 -15 -8 -24 -25 -28 -29 -7
-35 -43 -9 -53 13 -5 15 -23 12 -116 -2 -76 -7 -111 -15 -114 -15 -6 -18 -83
-3 -83 20 0 3 -185 -19 -212 -6 -7 -22 -28 -37 -45 -14 -18 -32 -33 -40 -33
-8 0 -14 -4 -14 -9 0 -5 -21 -12 -47 -16 -59 -9 -98 -46 -108 -103 -8 -51 1
-82 24 -82 12 0 21 11 27 33 9 30 12 32 69 38 72 7 116 28 148 71 41 57 47
101 47 349 0 325 20 410 115 497 71 65 126 82 271 82 l114 0 0 -25 c0 -23 -4
-25 -45 -25 -119 0 -200 -53 -229 -149 -13 -44 -16 -103 -16 -297 0 -184 -4
-257 -15 -301 -19 -71 -19 -84 -1 -77 16 6 44 69 44 99 1 68 16 205 23 205 14
0 10 77 -4 83 -9 3 -13 37 -16 116 -3 109 -2 111 19 111 19 0 21 4 17 26 -8
46 53 86 173 113 30 7 75 18 100 24 64 16 470 14 540 -2 30 -7 75 -18 100 -23
25 -6 72 -24 104 -39 33 -16 71 -30 85 -30 22 -2 23 -2 5 -6 -13 -2 -24 -14
-26 -28 -4 -20 0 -25 23 -30 l29 -7 0 -109 c0 -88 -3 -111 -15 -115 -19 -8
-20 -67 -2 -83 7 -6 14 -34 16 -63 5 -131 12 -182 28 -209 30 -50 42 -36 26
29 -10 40 -15 136 -17 322 -1 164 -6 273 -13 285 -6 11 -17 33 -24 49 -28 59
-116 105 -201 106 -44 0 -48 2 -48 25 l0 25 110 0 c122 0 178 -14 248 -62 86
-59 132 -177 132 -338 l0 -80 93 6 c269 19 463 -111 553 -371 13 -37 19 -91
22 -205 4 -166 -11 -262 -56 -361 -27 -58 -117 -143 -186 -175 -109 -50 -260
-56 -364 -15 l-49 20 -6 -133 c-6 -134 -18 -203 -44 -266 l-15 -35 21 19 c12
11 21 25 21 33 0 11 89 13 508 13 279 0 538 3 575 7 l68 6 44 76 c25 42 45 82
45 89 0 9 -124 12 -586 12 -530 0 -586 2 -580 16 3 9 6 31 6 50 l0 34 558 1
c306 1 582 4 612 7 l55 7 32 85 31 85 -379 3 c-208 1 -379 4 -379 7 0 3 14 24
30 47 17 22 30 47 30 55 0 11 63 13 348 13 191 0 357 3 369 6 18 5 25 20 39
81 10 44 13 78 7 84 -5 5 -164 10 -353 11 l-345 3 4 45 c1 25 6 46 11 48 5 2
7 13 5 25 -4 25 -15 131 -21 192 -4 43 -59 164 -106 233 -16 23 -26 47 -23 52
10 16 -34 69 -63 76 -15 4 -59 24 -97 45 -87 47 -164 67 -278 72 -101 5 -111
11 -121 75 -5 34 -3 42 9 42 23 0 19 47 -5 55 -11 3 -20 10 -20 15 0 32 -49
130 -83 167 -59 64 -115 95 -224 123 l-43 11 0 55 c0 39 -7 69 -26 106 -34 67
-33 123 5 246 55 175 57 319 7 428 -55 120 -118 138 -137 40 -8 -42 -6 -52 21
-100 40 -71 39 -117 -7 -258 -34 -104 -37 -123 -37 -233 -1 -115 0 -123 32
-189 17 -37 32 -71 32 -75 0 -4 -16 -15 -35 -24 -26 -12 -37 -25 -45 -56 -5
-21 -17 -42 -26 -45 -9 -3 -79 -1 -157 5 -99 8 -177 8 -257 1 -95 -8 -119 -8
-137 4 -13 8 -23 21 -23 29 0 8 -15 32 -34 52 -29 32 -33 44 -30 78 2 29 -5
56 -26 101 -36 72 -37 96 -9 189 11 39 27 95 36 125 11 35 17 96 17 170 1 109
-1 118 -31 182 -49 105 -93 134 -127 86z"/>
<path d="M3373 2486 c-14 -30 -15 -47 -5 -131 18 -157 65 -213 192 -223 58 -5
70 -13 70 -49 0 -27 34 -32 44 -7 12 30 6 90 -11 114 -26 38 -44 49 -95 56
-26 4 -45 10 -43 15 3 4 -5 9 -17 11 -12 2 -36 23 -56 52 -29 41 -35 59 -39
122 -3 41 -10 74 -15 74 -4 0 -16 -15 -25 -34z"/>
<path d="M3735 2410 c23 -108 23 -403 1 -439 -5 -7 -53 -11 -143 -11 -116 0
-134 2 -129 15 15 39 -45 -7 -68 -52 -23 -47 -41 -222 -24 -238 39 -36 195
-48 262 -20 93 39 155 138 176 282 26 179 -3 391 -65 476 -16 22 -17 21 -10
-13z m-177 -637 c-15 -2 -42 -2 -60 0 -18 2 -6 4 27 4 33 0 48 -2 33 -4z"/>
<path d="M3225 2109 c-22 -21 -40 -42 -40 -46 0 -5 -13 -29 -29 -55 l-28 -48
-586 0 c-323 0 -591 4 -597 8 -5 4 -19 24 -29 45 -11 20 -23 37 -28 37 -5 0
-6 4 -3 10 3 5 -6 20 -21 32 -15 13 -33 29 -42 37 -13 13 -21 13 -66 -3 -89
-31 -95 -46 -35 -77 56 -28 127 -95 151 -144 39 -76 47 -139 48 -372 0 -123 5
-246 11 -275 26 -123 81 -169 214 -178 l80 -5 3 -47 3 -48 -90 0 c-95 0 -158
13 -256 51 l-60 24 -553 -5 -552 -5 52 -66 53 -66 89 -7 c114 -8 3217 -5 3313
3 l71 6 51 64 c28 35 50 65 48 67 -2 2 -267 4 -590 4 -569 1 -587 0 -626 -19
-62 -32 -118 -44 -229 -48 l-103 -4 3 48 3 48 80 6 c91 7 134 25 168 71 41 56
47 101 47 334 0 243 11 331 54 419 28 57 85 113 141 139 65 31 63 42 -11 76
-37 16 -67 29 -68 29 0 -1 -19 -19 -41 -40z m-133 -389 l-4 -60 -551 2 -552 3
-3 58 -3 57 558 0 558 0 -3 -60z m-2 -300 l0 -50 -549 0 -548 0 -7 38 c-3 20
-6 43 -6 50 0 9 118 12 555 12 l555 0 0 -50z m-257 -250 c-22 -9 -48 -74 -36
-93 3 -5 -1 -13 -8 -18 -15 -9 -478 -13 -501 -4 -9 4 -13 17 -10 40 3 26 -2
40 -22 59 l-25 26 312 -1 c191 0 303 -4 290 -9z"/>
<path d="M1612 1978 c2 -10 -120 -14 -634 -18 -350 -3 -639 -8 -643 -12 -12
-12 25 -156 41 -162 9 -3 299 -6 645 -6 l630 0 -3 -57 -3 -58 -622 -5 -621 -5
31 -85 32 -85 45 -7 c25 -3 291 -7 593 -7 l547 -1 0 -50 0 -50 -560 0 c-441 0
-560 -3 -560 -12 0 -7 20 -47 45 -89 l44 -76 62 -7 c34 -3 282 -6 550 -6 269
0 489 -3 489 -7 0 -5 12 -21 26 -38 26 -31 27 -29 7 15 -33 71 -43 170 -43
414 0 256 -8 331 -42 379 -23 32 -60 55 -56 35z"/>
<path d="M982 751 c2 -6 37 -39 78 -75 l75 -66 1425 0 1425 0 75 66 c41 36 77
69 78 75 2 5 -594 9 -1578 9 -984 0 -1580 -4 -1578 -9z"/>
</g>
</svg>
