<?xml version="1.0" standalone="no"?>
<!DOCTYPE svg PUBLIC "-//W3C//DTD SVG 20010904//EN"
 "http://www.w3.org/TR/2001/REC-SVG-20010904/DTD/svg10.dtd">
<svg version="1.0" xmlns="http://www.w3.org/2000/svg"
 width="512.000000pt" height="512.000000pt" viewBox="0 0 512.000000 512.000000"
 preserveAspectRatio="xMidYMid meet">
<metadata>
Created by potrace 1.14, written by Peter Selinger 2001-2017
</metadata>
<g transform="translate(0.000000,512.000000) scale(0.100000,-0.100000)"
fill="#000000" stroke="none">
<path d="M2395 4633 c-93 -8 -216 -25 -305 -44 -92 -19 -274 -70 -315 -89 -11
-5 -49 -21 -85 -35 -243 -99 -505 -278 -708 -483 -268 -271 -444 -563 -543
-902 -22 -75 -59 -316 -58 -375 1 -27 5 -11 15 48 7 48 16 92 19 97 7 11 1224
14 1263 4 22 -6 23 -11 18 -53 -4 -25 -7 -72 -8 -103 l-2 -58 -652 0 c-489 0
-653 3 -656 12 -2 6 -4 -14 -4 -45 l1 -57 652 0 651 0 -7 -27 -7 -28 -637 -3
-636 -2 -4 -28 c-2 -15 -5 -2 -6 28 -2 39 -5 49 -10 35 -12 -29 -13 -155 -3
-169 13 -15 21 -76 10 -76 -10 0 -10 -45 -1 -130 5 -49 10 -64 25 -68 10 -2
18 -12 18 -21 0 -9 7 -28 14 -43 14 -26 13 -28 -5 -28 -24 0 -24 -18 -3 -110
15 -67 16 -70 51 -76 21 -4 30 -10 23 -14 -9 -5 -9 -9 -1 -14 6 -4 11 -17 11
-30 0 -12 5 -27 12 -34 9 -9 7 -12 -9 -12 -12 0 -24 -3 -27 -8 -2 -4 10 -45
28 -92 25 -65 38 -86 54 -88 14 -2 23 -13 27 -33 4 -16 13 -36 22 -44 13 -13
13 -15 -1 -15 -24 0 -20 -12 34 -105 48 -80 53 -85 85 -85 27 0 42 -8 67 -37
18 -20 41 -44 50 -54 14 -15 15 -18 1 -23 -8 -3 -26 -6 -39 -6 -13 0 -24 -3
-24 -6 0 -4 25 -38 56 -75 l56 -69 69 0 68 0 61 -58 c33 -32 57 -61 53 -65 -3
-4 -30 -7 -60 -7 -29 0 -53 -4 -53 -9 0 -5 35 -39 77 -75 l76 -66 1368 0 1367
0 34 27 c51 41 118 106 118 115 0 4 -24 8 -53 8 -30 0 -57 3 -60 7 -4 3 21 32
55 65 l61 58 67 0 c62 0 68 2 97 33 35 38 83 101 83 110 0 4 -9 7 -19 7 -51 0
-52 10 -5 65 38 45 52 54 82 57 35 3 40 8 85 82 26 44 47 84 47 89 0 5 -9 11
-20 14 -14 4 -17 9 -11 17 5 6 12 25 16 43 5 27 11 32 38 35 30 3 34 8 64 83
18 44 32 86 33 93 0 7 -13 12 -32 12 -18 0 -28 4 -22 8 13 9 35 71 29 82 -3 4
11 11 30 14 30 6 36 12 45 46 5 22 15 58 20 80 12 45 7 60 -18 60 -12 0 -13 3
-4 12 7 7 12 25 12 41 0 20 6 30 20 34 11 3 20 8 20 12 0 4 5 44 10 90 7 51 7
88 2 93 -6 6 -5 28 0 56 21 105 -17 541 -63 724 -100 400 -378 815 -734 1099
-190 152 -446 293 -670 369 -267 91 -622 136 -890 113z m550 -61 c284 -55 519
-144 756 -288 109 -66 131 -82 264 -190 325 -265 584 -657 701 -1063 13 -47
27 -94 30 -103 5 -17 -30 -18 -650 -18 -360 0 -661 3 -670 6 -9 3 -16 15 -16
26 0 10 -11 43 -25 71 -44 95 -109 148 -225 187 l-75 26 -6 54 c-3 30 -16 71
-28 91 -32 54 -36 112 -11 199 72 257 74 336 9 468 -37 77 -76 103 -115 77
-35 -23 -34 -100 2 -161 33 -56 30 -107 -15 -247 -46 -143 -54 -212 -37 -296
8 -38 24 -87 35 -109 27 -54 26 -64 -8 -83 -15 -9 -37 -34 -47 -55 -17 -36
-22 -39 -54 -36 -19 2 -134 4 -254 5 l-219 2 -20 35 c-10 19 -27 44 -38 56
-12 12 -19 35 -19 59 0 24 -10 56 -27 84 -36 61 -36 135 0 252 55 175 54 303
-5 419 -39 76 -72 100 -112 82 -23 -10 -26 -17 -26 -67 0 -40 7 -69 26 -106
32 -60 29 -96 -16 -239 -61 -192 -60 -300 2 -417 34 -63 32 -66 -42 -82 -76
-16 -138 -48 -190 -97 -46 -43 -93 -122 -102 -169 -1 -11 -7 -23 -13 -27 -12
-9 -1275 -11 -1275 -2 0 25 49 186 85 280 118 304 281 550 521 784 340 331
728 525 1204 601 164 26 545 21 705 -9z m1774 -1764 c6 -29 13 -79 17 -110 l6
-58 -455 0 c-387 0 -456 2 -467 15 -42 51 -192 102 -326 111 -55 4 -97 12 -99
18 -15 49 -14 65 2 69 10 3 309 5 665 6 l647 1 10 -52z m-2641 24 c90 -45 193
-62 408 -69 181 -6 275 3 411 38 42 11 85 27 97 35 11 8 36 14 56 14 35 0 35
-1 33 -37 -2 -21 -4 -67 -6 -103 l-2 -65 -535 0 -534 0 -4 103 c-4 99 -3 102
17 102 12 0 38 -8 59 -18z m-232 -72 c63 0 74 3 76 18 3 33 16 -154 17 -243 2
-158 -36 -293 -97 -348 -11 -10 -44 -31 -74 -46 -29 -15 -53 -34 -53 -42 0 -7
20 -25 44 -38 55 -30 113 -89 136 -138 36 -75 44 -143 45 -368 1 -230 8 -281
47 -347 29 -50 73 -71 163 -77 l75 -6 3 -42 c4 -51 7 -50 -138 -29 -197 29
-282 91 -321 238 -7 25 -14 164 -18 328 -6 262 -8 288 -27 324 -33 64 -80 96
-155 104 -42 5 -64 11 -63 20 1 6 2 26 3 42 1 29 3 30 46 30 56 0 102 19 137
56 45 48 58 102 58 239 0 138 13 382 18 348 3 -22 8 -23 78 -23z m1468 -1 c2
-13 5 -45 5 -70 1 -29 6 -49 14 -52 8 -3 46 -1 86 3 115 12 246 -16 326 -71
106 -72 171 -169 207 -312 38 -155 12 -405 -55 -520 -37 -63 -118 -132 -185
-158 -74 -29 -255 -32 -314 -5 -65 28 -64 30 -71 -116 -12 -253 -61 -332 -237
-386 -56 -17 -222 -34 -232 -24 -5 5 -8 25 -6 43 l3 34 75 6 c176 13 209 79
210 419 1 224 10 296 49 375 31 63 86 115 154 146 43 19 33 41 -33 72 -104 48
-156 146 -160 302 -4 131 1 342 7 328 3 -9 28 -13 74 -13 58 0 69 3 69 17 0
23 9 12 14 -18z m1254 -206 l182 -6 -1 -66 c-1 -64 -2 -65 -12 -28 l-11 37
-366 0 -367 0 -31 30 -31 29 57 4 c110 7 400 7 580 0z m-1497 -12 c-8 -5 -15
-19 -16 -30 l-1 -22 -509 1 c-280 0 -512 4 -516 8 -4 4 -10 17 -14 30 l-6 22
538 0 c319 0 532 -4 524 -9z"/>
<path d="M1813 2743 c20 -2 54 -2 75 0 20 2 3 4 -38 4 -41 0 -58 -2 -37 -4z"/>
<path d="M3197 2743 c18 -2 50 -2 70 0 21 2 7 4 -32 4 -38 0 -55 -2 -38 -4z"/>
<path d="M3405 2561 c-17 -10 -43 -33 -58 -50 -22 -27 -27 -42 -27 -89 0 -31
4 -73 9 -92 5 -19 12 -47 15 -62 9 -38 62 -96 104 -113 19 -8 54 -15 77 -15
41 0 43 -1 48 -37 4 -20 4 -39 2 -43 -2 -4 -33 -10 -67 -14 -69 -7 -118 -37
-150 -93 -17 -29 -40 -204 -30 -231 13 -38 196 -60 266 -33 123 49 186 192
186 427 0 183 -41 313 -122 390 -76 73 -186 97 -253 55z m170 -35 c20 -17 24
-26 15 -31 -12 -7 -161 -8 -168 0 -2 1 0 14 4 29 6 24 10 26 64 26 45 0 62 -5
85 -24z"/>
</g>
</svg>
